<svg xmlns="http://www.w3.org/2000/svg" xmlns:xlink="http://www.w3.org/1999/xlink" contentStyleType="text/css" data-diagram-type="SEQUENCE" height="177px" preserveAspectRatio="none" style="width:356px;height:177px;background:#FFFFFF;" version="1.1" viewBox="0 0 356 177" width="356px" zoomAndPan="magnify"><defs/><g><g><title>MonitorTask</title><rect fill="#000000" fill-opacity="0.00000" height="106.2656" width="8" x="50.875" y="36.2969"/><line style="stroke:#181818;stroke-width:0.5;stroke-dasharray:5,5;" x1="54" x2="54" y1="36.2969" y2="142.5625"/></g><g><title>GVL</title><rect fill="#000000" fill-opacity="0.00000" height="106.2656" width="8" x="226.7681" y="36.2969"/><line style="stroke:#181818;stroke-width:0.5;stroke-dasharray:5,5;" x1="230.6553" x2="230.6553" y1="36.2969" y2="142.5625"/></g><g><title>WaterTask</title><rect fill="#000000" fill-opacity="0.00000" height="106.2656" width="8" x="302.2871" y="36.2969"/><line style="stroke:#181818;stroke-width:0.5;stroke-dasharray:5,5;" x1="305.8809" x2="305.8809" y1="36.2969" y2="142.5625"/></g><g class="participant participant-head" data-participant="MonitorTask"><rect fill="#E2E2F0" height="30.2969" rx="2.5" ry="2.5" style="stroke:#181818;stroke-width:0.5;" width="99.75" x="5" y="5"/><text fill="#000000" font-family="sans-serif" font-size="14" lengthAdjust="spacing" textLength="85.75" x="12" y="24.9951">MonitorTask</text></g><g class="participant participant-tail" data-participant="MonitorTask"><rect fill="#E2E2F0" height="30.2969" rx="2.5" ry="2.5" style="stroke:#181818;stroke-width:0.5;" width="99.75" x="5" y="141.5625"/><text fill="#000000" font-family="sans-serif" font-size="14" lengthAdjust="spacing" textLength="85.75" x="12" y="161.5576">MonitorTask</text></g><g class="participant participant-head" data-participant="GVL"><rect fill="#E2E2F0" height="30.2969" rx="2.5" ry="2.5" style="stroke:#181818;stroke-width:0.5;" width="42.2256" x="209.6553" y="5"/><text fill="#000000" font-family="sans-serif" font-size="14" lengthAdjust="spacing" textLength="28.2256" x="216.6553" y="24.9951">GVL</text></g><g class="participant participant-tail" data-participant="GVL"><rect fill="#E2E2F0" height="30.2969" rx="2.5" ry="2.5" style="stroke:#181818;stroke-width:0.5;" width="42.2256" x="209.6553" y="141.5625"/><text fill="#000000" font-family="sans-serif" font-size="14" lengthAdjust="spacing" textLength="28.2256" x="216.6553" y="161.5576">GVL</text></g><g class="participant participant-head" data-participant="WaterTask"><rect fill="#E2E2F0" height="30.2969" rx="2.5" ry="2.5" style="stroke:#181818;stroke-width:0.5;" width="88.8125" x="261.8809" y="5"/><text fill="#000000" font-family="sans-serif" font-size="14" lengthAdjust="spacing" textLength="74.8125" x="268.8809" y="24.9951">WaterTask</text></g><g class="participant participant-tail" data-participant="WaterTask"><rect fill="#E2E2F0" height="30.2969" rx="2.5" ry="2.5" style="stroke:#181818;stroke-width:0.5;" width="88.8125" x="261.8809" y="141.5625"/><text fill="#000000" font-family="sans-serif" font-size="14" lengthAdjust="spacing" textLength="74.8125" x="268.8809" y="161.5576">WaterTask</text></g><g class="message" data-participant-1="MonitorTask" data-participant-2="GVL"><polygon fill="#181818" points="218.7681,63.4297,228.7681,67.4297,218.7681,71.4297,222.7681,67.4297" style="stroke:#181818;stroke-width:1;"/><line style="stroke:#181818;stroke-width:1;stroke-dasharray:2,2;" x1="54.875" x2="224.7681" y1="67.4297" y2="67.4297"/><text fill="#000000" font-family="sans-serif" font-size="13" lengthAdjust="spacing" textLength="151.8931" x="61.875" y="62.3638">tell water and moisture</text></g><g class="message" data-participant-1="MonitorTask" data-participant-2="GVL"><polygon fill="#181818" points="218.7681,92.5625,228.7681,96.5625,218.7681,100.5625,222.7681,96.5625" style="stroke:#181818;stroke-width:1;"/><line style="stroke:#181818;stroke-width:1;stroke-dasharray:2,2;" x1="54.875" x2="224.7681" y1="96.5625" y2="96.5625"/><text fill="#000000" font-family="sans-serif" font-size="13" lengthAdjust="spacing" textLength="114.3594" x="61.875" y="91.4966">tell water needed</text></g><g class="message" data-participant-1="WaterTask" data-participant-2="GVL"><polygon fill="#181818" points="241.7681,106.5625,231.7681,110.5625,241.7681,114.5625,237.7681,110.5625" style="stroke:#181818;stroke-width:1;"/><line style="stroke:#181818;stroke-width:1;stroke-dasharray:2,2;" x1="235.7681" x2="305.2871" y1="110.5625" y2="110.5625"/></g><g class="message" data-participant-1="WaterTask" data-participant-2="GVL"><polygon fill="#181818" points="241.7681,120.5625,231.7681,124.5625,241.7681,128.5625,237.7681,124.5625" style="stroke:#181818;stroke-width:1;"/><line style="stroke:#181818;stroke-width:1;stroke-dasharray:2,2;" x1="235.7681" x2="305.2871" y1="124.5625" y2="124.5625"/></g><!--SRC=[yytFoop9Bmf9BCxMrRLJS0_piL8eISt9KIXFB4ajKaZCIr78pSyiBYajIbNWyiMlE2yrDIKrXIiSn45MWoa20000]--></g></svg>