<svg xmlns="http://www.w3.org/2000/svg" xmlns:xlink="http://www.w3.org/1999/xlink" contentStyleType="text/css" data-diagram-type="SEQUENCE" height="520px" preserveAspectRatio="none" style="width:410px;height:520px;" version="1.1" viewBox="0 0 410 520" width="410px" zoomAndPan="magnify"><defs/><g><g><title>bas</title><rect fill="#FFFFFF" height="95.0234" style="stroke:#181818;stroke-width:1;" width="10" x="19.3799" y="78.8906"/></g><g><title>somebody</title><rect fill="#FFFFFF" height="231.0625" style="stroke:#181818;stroke-width:1;" width="10" x="279.6089" y="203.0469"/></g><g><title>bas</title><rect fill="#000000" fill-opacity="0.00000" height="383.2188" width="8" x="20.3799" y="68.8906"/><line style="stroke:#181818;stroke-width:0.5;stroke-dasharray:5,5;" x1="24" x2="24" y1="68.8906" y2="452.1094"/></g><g><title>teams post with </title><rect fill="#000000" fill-opacity="0.00000" height="326.2734" width="8" x="151.7456" y="125.8359"/><line style="stroke:#181818;stroke-width:0.5;stroke-dasharray:5,5;" x1="155.2495" x2="155.2495" y1="125.8359" y2="452.1094"/></g><g><title>somebody</title><rect fill="#000000" fill-opacity="0.00000" height="383.2188" width="8" x="280.6089" y="68.8906"/><line style="stroke:#181818;stroke-width:0.5;stroke-dasharray:5,5;" x1="284.2417" x2="284.2417" y1="68.8906" y2="452.1094"/></g><g class="participant participant-head" data-participant="bas"><rect fill="#E2E2F0" height="30.2969" rx="2.5" ry="2.5" style="stroke:#181818;stroke-width:0.5;" width="38.7598" x="5" y="37.5938"/><text fill="#000000" font-family="sans-serif" font-size="14" lengthAdjust="spacing" textLength="24.7598" x="12" y="57.5889">bas</text></g><g class="participant participant-tail" data-participant="bas"><rect fill="#E2E2F0" height="30.2969" rx="2.5" ry="2.5" style="stroke:#181818;stroke-width:0.5;" width="38.7598" x="5" y="451.1094"/><text fill="#000000" font-family="sans-serif" font-size="14" lengthAdjust="spacing" textLength="24.7598" x="12" y="471.1045">bas</text></g><g class="participant participant-tail" data-participant="teams_post"><rect fill="#E2E2F0" height="62.8906" rx="2.5" ry="2.5" style="stroke:#181818;stroke-width:0.5;" width="150.9922" x="80.2495" y="451.1094"/><text fill="#000000" font-family="sans-serif" font-size="14" lengthAdjust="spacing" textLength="112.4512" x="97.2949" y="471.1045">teams post with</text><text fill="#000000" font-family="sans-serif" font-size="14" lengthAdjust="spacing" textLength="136.9922" x="87.2495" y="487.4014">request for sending</text><text fill="#000000" font-family="sans-serif" font-size="14" lengthAdjust="spacing" textLength="132.9932" x="89.249" y="503.6982">your github handle</text></g><g class="participant participant-head" data-participant="somebody"><rect fill="#E2E2F0" height="30.2969" rx="2.5" ry="2.5" style="stroke:#181818;stroke-width:0.5;" width="86.7344" x="241.2417" y="37.5938"/><text fill="#000000" font-family="sans-serif" font-size="14" lengthAdjust="spacing" textLength="72.7344" x="248.2417" y="57.5889">somebody</text></g><g class="participant participant-tail" data-participant="somebody"><rect fill="#E2E2F0" height="30.2969" rx="2.5" ry="2.5" style="stroke:#181818;stroke-width:0.5;" width="86.7344" x="241.2417" y="451.1094"/><text fill="#000000" font-family="sans-serif" font-size="14" lengthAdjust="spacing" textLength="72.7344" x="248.2417" y="471.1045">somebody</text></g><g><title>bas</title><rect fill="#FFFFFF" height="95.0234" style="stroke:#181818;stroke-width:1;" width="10" x="19.3799" y="78.8906"/></g><g><title>somebody</title><rect fill="#FFFFFF" height="231.0625" style="stroke:#181818;stroke-width:1;" width="10" x="279.6089" y="203.0469"/></g><g class="message" data-participant-1="bas" data-participant-2="teams_post"><polygon fill="#181818" points="68.2495,96.0234,78.2495,100.0234,68.2495,104.0234,72.2495,100.0234" style="stroke:#181818;stroke-width:1;"/><line style="stroke:#181818;stroke-width:1;" x1="29.3799" x2="74.2495" y1="100.0234" y2="100.0234"/><text fill="#000000" font-family="sans-serif" font-size="13" lengthAdjust="spacing" textLength="26.8696" x="36.3799" y="94.9575">new</text></g><rect fill="#E2E2F0" height="62.8906" rx="2.5" ry="2.5" style="stroke:#181818;stroke-width:0.5;" width="150.9922" x="80.2495" y="78.8906"/><text fill="#000000" font-family="sans-serif" font-size="14" lengthAdjust="spacing" textLength="112.4512" x="97.2949" y="98.8857">teams post with</text><text fill="#000000" font-family="sans-serif" font-size="14" lengthAdjust="spacing" textLength="136.9922" x="87.2495" y="115.1826">request for sending</text><text fill="#000000" font-family="sans-serif" font-size="14" lengthAdjust="spacing" textLength="132.9932" x="89.249" y="131.4795">your github handle</text><g class="message" data-participant-1="teams_post" data-participant-2="bas"><polygon fill="#181818" points="35.3799,169.9141,25.3799,173.9141,35.3799,177.9141,31.3799,173.9141" style="stroke:#181818;stroke-width:1;"/><line style="stroke:#181818;stroke-width:1;stroke-dasharray:2,2;" x1="29.3799" x2="154.7456" y1="173.9141" y2="173.9141"/><text fill="#000000" font-family="sans-serif" font-size="13" lengthAdjust="spacing" textLength="32.4429" x="41.3799" y="168.8481">done</text></g><g class="message" data-participant-1="teams_post" data-participant-2="somebody"><polygon fill="#181818" points="267.6089,199.0469,277.6089,203.0469,267.6089,207.0469,271.6089,203.0469" style="stroke:#181818;stroke-width:1;"/><line style="stroke:#181818;stroke-width:1;" x1="155.7456" x2="273.6089" y1="203.0469" y2="203.0469"/><text fill="#000000" font-family="sans-serif" font-size="13" lengthAdjust="spacing" textLength="73.106" x="162.7456" y="197.981">notification</text></g><g class="message" data-participant-1="somebody" data-participant-2="somebody"><line style="stroke:#181818;stroke-width:1;" x1="289.6089" x2="331.6089" y1="232.1797" y2="232.1797"/><line style="stroke:#181818;stroke-width:1;" x1="331.6089" x2="331.6089" y1="232.1797" y2="245.1797"/><line style="stroke:#181818;stroke-width:1;" x1="290.6089" x2="331.6089" y1="245.1797" y2="245.1797"/><polygon fill="#181818" points="300.6089,241.1797,290.6089,245.1797,300.6089,249.1797,296.6089,245.1797" style="stroke:#181818;stroke-width:1;"/><text fill="#000000" font-family="sans-serif" font-size="13" lengthAdjust="spacing" textLength="106.7803" x="296.6089" y="227.1138">sees notification</text></g><g class="message" data-participant-1="somebody" data-participant-2="teams_post"><polygon fill="#181818" points="166.7456,270.3125,156.7456,274.3125,166.7456,278.3125,162.7456,274.3125" style="stroke:#181818;stroke-width:1;"/><line style="stroke:#181818;stroke-width:1;" x1="160.7456" x2="278.6089" y1="274.3125" y2="274.3125"/><text fill="#000000" font-family="sans-serif" font-size="13" lengthAdjust="spacing" textLength="61.769" x="172.7456" y="269.2466">read post</text></g><g class="message" data-participant-1="teams_post" data-participant-2="somebody"><polygon fill="#181818" points="267.6089,299.4453,277.6089,303.4453,267.6089,307.4453,271.6089,303.4453" style="stroke:#181818;stroke-width:1;"/><line style="stroke:#181818;stroke-width:1;stroke-dasharray:2,2;" x1="155.7456" x2="273.6089" y1="303.4453" y2="303.4453"/><text fill="#000000" font-family="sans-serif" font-size="13" lengthAdjust="spacing" textLength="86.2393" x="162.7456" y="298.3794">done reading</text></g><g class="message" data-participant-1="somebody" data-participant-2="somebody"><line style="stroke:#181818;stroke-width:1;" x1="289.6089" x2="331.6089" y1="362.8438" y2="362.8438"/><line style="stroke:#181818;stroke-width:1;" x1="331.6089" x2="331.6089" y1="362.8438" y2="375.8438"/><line style="stroke:#181818;stroke-width:1;" x1="290.6089" x2="331.6089" y1="375.8438" y2="375.8438"/><polygon fill="#181818" points="300.6089,371.8438,290.6089,375.8438,300.6089,379.8438,296.6089,375.8438" style="stroke:#181818;stroke-width:1;"/><text fill="#000000" font-family="sans-serif" font-size="13" lengthAdjust="spacing" textLength="93.4946" x="296.6089" y="327.5122">look up github</text><text fill="#000000" font-family="sans-serif" font-size="13" lengthAdjust="spacing" textLength="101.0293" x="296.6089" y="342.645">handle in super</text><text fill="#000000" font-family="sans-serif" font-size="13" lengthAdjust="spacing" textLength="77.3589" x="296.6089" y="357.7778">secret diary</text></g><g class="message" data-participant-1="somebody" data-participant-2="teams_post"><polygon fill="#181818" points="166.7456,400.9766,156.7456,404.9766,166.7456,408.9766,162.7456,404.9766" style="stroke:#181818;stroke-width:1;"/><line style="stroke:#181818;stroke-width:1;" x1="160.7456" x2="278.6089" y1="404.9766" y2="404.9766"/><text fill="#000000" font-family="sans-serif" font-size="13" lengthAdjust="spacing" textLength="85.4331" x="172.7456" y="399.9106">reply on post</text></g><g class="message" data-participant-1="teams_post" data-participant-2="somebody"><polygon fill="#181818" points="272.6089,430.1094,282.6089,434.1094,272.6089,438.1094,276.6089,434.1094" style="stroke:#181818;stroke-width:1;"/><line style="stroke:#181818;stroke-width:1;stroke-dasharray:2,2;" x1="155.7456" x2="278.6089" y1="434.1094" y2="434.1094"/><text fill="#000000" font-family="sans-serif" font-size="13" lengthAdjust="spacing" textLength="32.4429" x="162.7456" y="429.0435">done</text></g><!--SRC=[ZL11JiGm3Bpd5Vv0Fu0G5vx18kGstgxLrWwnmwg_9oqgD0SGXoYoPp8p6PjO4cPSeCTX6hCMYSywQmRFA5OX4W_rSXuueNZbMJCxuM9lIStX9Um3xCET_GOXqtkXEbshef54bZ6iMZAC5Iuzt53YJE4r39dGwQGMS73-s7QROptGFPtD7a3elkyVkwu5eWg5I8r0E36gaEb2lSPrar7dAm_ehF9ZUX32DxDzPKJMFZqJcpZrPt7lfCdGocsHT-9Mq2-Mi-e49HtLNUIhF601AudoHOngZGwHCQz_vKdp2Yh_oNIkyO0-0G00]--></g></svg>