<svg xmlns="http://www.w3.org/2000/svg" xmlns:xlink="http://www.w3.org/1999/xlink" contentStyleType="text/css" data-diagram-type="STATE" height="381px" preserveAspectRatio="none" style="width:197px;height:381px;background:#FFFFFF;" version="1.1" viewBox="0 0 197 381" width="197px" zoomAndPan="magnify"><defs/><g><ellipse cx="106.96" cy="16" fill="#222222" rx="10" ry="10" style="stroke:#222222;stroke-width:1;"/><g id="Initial_State"><rect fill="#F1F1F1" height="50" rx="12.5" ry="12.5" style="stroke:#181818;stroke-width:0.5;" width="102.7969" x="55.57" y="87"/><line style="stroke:#181818;stroke-width:0.5;" x1="55.57" x2="158.3669" y1="113.2969" y2="113.2969"/><text fill="#000000" font-family="sans-serif" font-size="14" lengthAdjust="spacing" textLength="82.7969" x="65.57" y="104.9951">Initial_State</text></g><g id="CheckConditions"><rect fill="#F1F1F1" height="50" rx="12.5" ry="12.5" style="stroke:#181818;stroke-width:0.5;" width="137.168" x="38.38" y="198"/><line style="stroke:#181818;stroke-width:0.5;" x1="38.38" x2="175.548" y1="224.2969" y2="224.2969"/><text fill="#000000" font-family="sans-serif" font-size="14" lengthAdjust="spacing" textLength="117.168" x="48.38" y="215.9951">CheckConditions</text></g><g id="Watering"><rect fill="#F1F1F1" height="50" rx="12.5" ry="12.5" style="stroke:#181818;stroke-width:0.5;" width="83.9297" x="7" y="325"/><line style="stroke:#181818;stroke-width:0.5;" x1="7" x2="90.9297" y1="351.2969" y2="351.2969"/><text fill="#000000" font-family="sans-serif" font-size="14" lengthAdjust="spacing" textLength="63.9297" x="17" y="342.9951">Watering</text></g><g id="Idle"><rect fill="#F1F1F1" height="50" rx="12.5" ry="12.5" style="stroke:#181818;stroke-width:0.5;" width="50" x="140.96" y="325"/><line style="stroke:#181818;stroke-width:0.5;" x1="140.96" x2="190.96" y1="351.2969" y2="351.2969"/><text fill="#000000" font-family="sans-serif" font-size="14" lengthAdjust="spacing" textLength="25.5186" x="153.2007" y="342.9951">Idle</text></g><!--link *start* to Initial_State--><g class="link" data-entity-1=".start." data-entity-2="Initial_State" data-source-line="1" data-uid="lnk4" id="link_.start._Initial_State"><path d="M106.96,26.36 C106.96,40.29 106.96,60.95 106.96,80.65" fill="none" id="*start*-to-Initial_State" style="stroke:#181818;stroke-width:1;"/><polygon fill="#181818" points="106.96,86.65,110.96,77.65,106.96,81.65,102.96,77.65,106.96,86.65" style="stroke:#181818;stroke-width:1;"/></g><!--link Initial_State to CheckConditions--><g class="link" data-entity-1="Initial_State" data-entity-2="CheckConditions" data-source-line="2" data-uid="lnk6" id="link_Initial_State_CheckConditions"><path d="M106.96,137.46 C106.96,155.41 106.96,173.69 106.96,191.62" fill="none" id="Initial_State-to-CheckConditions" style="stroke:#181818;stroke-width:1;"/><polygon fill="#181818" points="106.96,197.62,110.96,188.62,106.96,192.62,102.96,188.62,106.96,197.62" style="stroke:#181818;stroke-width:1;"/></g><!--link CheckConditions to Watering--><g class="link" data-entity-1="CheckConditions" data-entity-2="Watering" data-source-line="3" data-uid="lnk8" id="link_CheckConditions_Watering"><path d="M69.56,248.3 C60.08,256.5 51.13,266.52 45.96,278 C39.43,292.51 39.232,304.5153 41.652,318.7153" fill="none" id="CheckConditions-to-Watering" style="stroke:#181818;stroke-width:1;"/><polygon fill="#181818" points="42.66,324.63,45.0911,315.0859,41.82,319.7011,37.2048,316.4299,42.66,324.63" style="stroke:#181818;stroke-width:1;"/><text fill="#000000" font-family="sans-serif" font-size="13" lengthAdjust="spacing" textLength="92.1299" x="46.96" y="291.0669">Water needed</text></g><!--link CheckConditions to Idle--><g class="link" data-entity-1="CheckConditions" data-entity-2="Idle" data-source-line="4" data-uid="lnk10" id="link_CheckConditions_Idle"><path d="M125.92,248.32 C132.29,257.29 139.02,267.77 143.96,278 C151.16,292.87 155.13,304.8184 158.83,318.8484" fill="none" id="CheckConditions-to-Idle" style="stroke:#181818;stroke-width:1;"/><polygon fill="#181818" points="160.36,324.65,161.9327,314.9275,159.085,319.8153,154.1972,316.9675,160.36,324.65" style="stroke:#181818;stroke-width:1;"/></g><!--SRC=[YzQALT3LjLFmpCiioKpCYGykIIn9vKBXWQITCrAJivtpyrA0ulbvnLneV92ISA3IeioyT0Kh25CXBpKr9JK5crBFb9nK0000]--></g></svg>