<svg xmlns="http://www.w3.org/2000/svg" xmlns:xlink="http://www.w3.org/1999/xlink" contentStyleType="text/css" data-diagram-type="STATE" height="381px" preserveAspectRatio="none" style="width:191px;height:381px;background:#FFFFFF;" version="1.1" viewBox="0 0 191 381" width="191px" zoomAndPan="magnify"><defs/><g><ellipse cx="95.9" cy="16" fill="#222222" rx="10" ry="10" style="stroke:#222222;stroke-width:1;"/><g id="Initial_state"><rect fill="#F1F1F1" height="50" rx="12.5" ry="12.5" style="stroke:#181818;stroke-width:0.5;" width="101.2041" x="45.3" y="87"/><line style="stroke:#181818;stroke-width:0.5;" x1="45.3" x2="146.5041" y1="113.2969" y2="113.2969"/><text fill="#000000" font-family="sans-serif" font-size="14" lengthAdjust="spacing" textLength="81.2041" x="55.3" y="104.9951">Initial_state</text></g><g id="ReadSensors"><rect fill="#F1F1F1" height="50.2656" rx="12.5" ry="12.5" style="stroke:#181818;stroke-width:0.5;" width="177.8047" x="7" y="198"/><line style="stroke:#181818;stroke-width:0.5;" x1="7" x2="184.8047" y1="224.2969" y2="224.2969"/><text fill="#000000" font-family="sans-serif" font-size="14" lengthAdjust="spacing" textLength="91.0889" x="50.3579" y="215.9951">ReadSensors</text><text fill="#000000" font-family="sans-serif" font-size="12" lengthAdjust="spacing" textLength="157.8047" x="12" y="240.4355">Moisture and temperature</text></g><g id="Changing_variabiles"><rect fill="#F1F1F1" height="50" rx="12.5" ry="12.5" style="stroke:#181818;stroke-width:0.5;" width="161.2988" x="15.25" y="325.27"/><line style="stroke:#181818;stroke-width:0.5;" x1="15.25" x2="176.5488" y1="351.5669" y2="351.5669"/><text fill="#000000" font-family="sans-serif" font-size="14" lengthAdjust="spacing" textLength="141.2988" x="25.25" y="343.2651">Changing_variabiles</text></g><!--link *start* to Initial_state--><g class="link" data-entity-1=".start." data-entity-2="Initial_state" data-source-line="1" data-uid="lnk4" id="link_.start._Initial_state"><path d="M95.9,26.36 C95.9,40.29 95.9,60.96 95.9,80.65" fill="none" id="*start*-to-Initial_state" style="stroke:#181818;stroke-width:1;"/><polygon fill="#181818" points="95.9,86.65,99.9,77.65,95.9,81.65,91.9,77.65,95.9,86.65" style="stroke:#181818;stroke-width:1;"/></g><!--link Initial_state to ReadSensors--><g class="link" data-entity-1="Initial_state" data-entity-2="ReadSensors" data-source-line="2" data-uid="lnk6" id="link_Initial_state_ReadSensors"><path d="M95.9,137.5 C95.9,155.47 95.9,173.77 95.9,191.73" fill="none" id="Initial_state-to-ReadSensors" style="stroke:#181818;stroke-width:1;"/><polygon fill="#181818" points="95.9,197.73,99.9,188.73,95.9,192.73,91.9,188.73,95.9,197.73" style="stroke:#181818;stroke-width:1;"/></g><!--link ReadSensors to Changing_variabiles--><g class="link" data-entity-1="ReadSensors" data-entity-2="Changing_variabiles" data-source-line="4" data-uid="lnk8" id="link_ReadSensors_Changing_variabiles"><path d="M91.54,248.47 C89.58,262.19 87.9,279.67 88.9,295.27 C89.53,304.99 89.973,309.6859 91.243,318.9259" fill="none" id="ReadSensors-to-Changing_variabiles" style="stroke:#181818;stroke-width:1;"/><polygon fill="#181818" points="92.06,324.87,94.7973,315.4092,91.3792,319.9166,86.8718,316.4985,92.06,324.87" style="stroke:#181818;stroke-width:1;"/></g><!--link Changing_variabiles to ReadSensors--><g class="link" data-entity-1="Changing_variabiles" data-entity-2="ReadSensors" data-source-line="5" data-uid="lnk9" id="link_Changing_variabiles_ReadSensors"><path d="M95.9,324.91 C95.9,302.88 95.9,276.61 95.9,254.56" fill="none" id="Changing_variabiles-to-ReadSensors" style="stroke:#181818;stroke-width:1;"/><polygon fill="#181818" points="95.9,248.56,91.9,257.56,95.9,253.56,99.9,257.56,95.9,248.56" style="stroke:#181818;stroke-width:1;"/><text fill="#000000" font-family="sans-serif" font-size="13" lengthAdjust="spacing" textLength="31.4019" x="96.9" y="291.3369">Loop</text></g><!--SRC=[YzQALT3LjLFmpCiioKpCYIykIIn9vKBXWUM3KXDJWbFpYlEBYhcGs5OAllcPnIMbHQaAYNaf2YMfkGMfHOaWFh8gi0dE6ObvwPbvwV5bYKMPYKcPEQd5N5Z4q6rJi5BmoSyl0000]--></g></svg>