<svg xmlns="http://www.w3.org/2000/svg" xmlns:xlink="http://www.w3.org/1999/xlink" contentStyleType="text/css" data-diagram-type="STATE" height="381px" preserveAspectRatio="none" style="width:175px;height:381px;background:#FFFFFF;" version="1.1" viewBox="0 0 175 381" width="175px" zoomAndPan="magnify"><defs/><g><ellipse cx="87.65" cy="16" fill="#222222" rx="10" ry="10" style="stroke:#222222;stroke-width:1;"/><g id="Initial_state"><rect fill="#F1F1F1" height="50" rx="12.5" ry="12.5" style="stroke:#181818;stroke-width:0.5;" width="101.2041" x="37.05" y="87"/><line style="stroke:#181818;stroke-width:0.5;" x1="37.05" x2="138.2541" y1="113.2969" y2="113.2969"/><text fill="#000000" font-family="sans-serif" font-size="14" lengthAdjust="spacing" textLength="81.2041" x="47.05" y="104.9951">Initial_state</text></g><g id="ReadSensors"><rect fill="#F1F1F1" height="50" rx="12.5" ry="12.5" style="stroke:#181818;stroke-width:0.5;" width="111.0889" x="32.1" y="198"/><line style="stroke:#181818;stroke-width:0.5;" x1="32.1" x2="143.1889" y1="224.2969" y2="224.2969"/><text fill="#000000" font-family="sans-serif" font-size="14" lengthAdjust="spacing" textLength="91.0889" x="42.1" y="215.9951">ReadSensors</text></g><g id="Changing_variabiles"><rect fill="#F1F1F1" height="50" rx="12.5" ry="12.5" style="stroke:#181818;stroke-width:0.5;" width="161.2988" x="7" y="325"/><line style="stroke:#181818;stroke-width:0.5;" x1="7" x2="168.2988" y1="351.2969" y2="351.2969"/><text fill="#000000" font-family="sans-serif" font-size="14" lengthAdjust="spacing" textLength="141.2988" x="17" y="342.9951">Changing_variabiles</text></g><!--link *start* to Initial_state--><g class="link" data-entity-1=".start." data-entity-2="Initial_state" data-source-line="1" data-uid="lnk4" id="link_.start._Initial_state"><path d="M87.65,26.36 C87.65,40.29 87.65,60.95 87.65,80.65" fill="none" id="*start*-to-Initial_state" style="stroke:#181818;stroke-width:1;"/><polygon fill="#181818" points="87.65,86.65,91.65,77.65,87.65,81.65,83.65,77.65,87.65,86.65" style="stroke:#181818;stroke-width:1;"/></g><!--link Initial_state to ReadSensors--><g class="link" data-entity-1="Initial_state" data-entity-2="ReadSensors" data-source-line="2" data-uid="lnk6" id="link_Initial_state_ReadSensors"><path d="M87.65,137.46 C87.65,155.41 87.65,173.69 87.65,191.62" fill="none" id="Initial_state-to-ReadSensors" style="stroke:#181818;stroke-width:1;"/><polygon fill="#181818" points="87.65,197.62,91.65,188.62,87.65,192.62,83.65,188.62,87.65,197.62" style="stroke:#181818;stroke-width:1;"/></g><!--link ReadSensors to Changing_variabiles--><g class="link" data-entity-1="ReadSensors" data-entity-2="Changing_variabiles" data-source-line="3" data-uid="lnk8" id="link_ReadSensors_Changing_variabiles"><path d="M83.81,248.4 C82.53,257.64 81.28,268.28 80.65,278 C79.64,293.57 80.466,305.0811 82.436,318.7811" fill="none" id="ReadSensors-to-Changing_variabiles" style="stroke:#181818;stroke-width:1;"/><polygon fill="#181818" points="83.29,324.72,85.9683,315.2423,82.5783,319.7709,78.0497,316.381,83.29,324.72" style="stroke:#181818;stroke-width:1;"/></g><!--link Changing_variabiles to ReadSensors--><g class="link" data-entity-1="Changing_variabiles" data-entity-2="ReadSensors" data-source-line="4" data-uid="lnk9" id="link_Changing_variabiles_ReadSensors"><path d="M87.65,324.66 C87.65,302.66 87.65,276.42 87.65,254.4" fill="none" id="Changing_variabiles-to-ReadSensors" style="stroke:#181818;stroke-width:1;"/><polygon fill="#181818" points="87.65,248.4,83.65,257.4,87.65,253.4,91.65,257.4,87.65,248.4" style="stroke:#181818;stroke-width:1;"/><text fill="#000000" font-family="sans-serif" font-size="13" lengthAdjust="spacing" textLength="31.4019" x="88.65" y="291.0669">Loop</text></g><!--SRC=[YzQALT3LjLFmpCiioKpCYIykIIn9vKBXWUM3KXDJWbFpYlEBYhcGs60vvup4lFJClFJuiiIYpCIap9pKOYuiOkZcA5Wf-EJd5m00]--></g></svg>