<svg xmlns="http://www.w3.org/2000/svg" xmlns:xlink="http://www.w3.org/1999/xlink" contentStyleType="text/css" data-diagram-type="STATE" height="381px" preserveAspectRatio="none" style="width:216px;height:381px;background:#FFFFFF;" version="1.1" viewBox="0 0 216 381" width="216px" zoomAndPan="magnify"><defs/><g><ellipse cx="115.96" cy="16" fill="#222222" rx="10" ry="10" style="stroke:#222222;stroke-width:1;"/><g id="Initial_State"><rect fill="#F1F1F1" height="50" rx="12.5" ry="12.5" style="stroke:#181818;stroke-width:0.5;" width="102.7969" x="64.57" y="87"/><line style="stroke:#181818;stroke-width:0.5;" x1="64.57" x2="167.3669" y1="113.2969" y2="113.2969"/><text fill="#000000" font-family="sans-serif" font-size="14" lengthAdjust="spacing" textLength="82.7969" x="74.57" y="104.9951">Initial_State</text></g><g id="CheckConditions"><rect fill="#F1F1F1" height="50" rx="12.5" ry="12.5" style="stroke:#181818;stroke-width:0.5;" width="137.168" x="47.38" y="198"/><line style="stroke:#181818;stroke-width:0.5;" x1="47.38" x2="184.548" y1="224.2969" y2="224.2969"/><text fill="#000000" font-family="sans-serif" font-size="14" lengthAdjust="spacing" textLength="117.168" x="57.38" y="215.9951">CheckConditions</text></g><g id="Watering"><rect fill="#F1F1F1" height="50" rx="12.5" ry="12.5" style="stroke:#181818;stroke-width:0.5;" width="83.9297" x="7" y="325"/><line style="stroke:#181818;stroke-width:0.5;" x1="7" x2="90.9297" y1="351.2969" y2="351.2969"/><text fill="#000000" font-family="sans-serif" font-size="14" lengthAdjust="spacing" textLength="63.9297" x="17" y="342.9951">Watering</text></g><g id="Idle"><rect fill="#F1F1F1" height="50" rx="12.5" ry="12.5" style="stroke:#181818;stroke-width:0.5;" width="50" x="157.96" y="325"/><line style="stroke:#181818;stroke-width:0.5;" x1="157.96" x2="207.96" y1="351.2969" y2="351.2969"/><text fill="#000000" font-family="sans-serif" font-size="14" lengthAdjust="spacing" textLength="25.5186" x="170.2007" y="342.9951">Idle</text></g><!--link *start* to Initial_State--><g class="link" data-entity-1=".start." data-entity-2="Initial_State" data-source-line="1" data-uid="lnk4" id="link_.start._Initial_State"><path d="M115.96,26.36 C115.96,40.29 115.96,60.95 115.96,80.65" fill="none" id="*start*-to-Initial_State" style="stroke:#181818;stroke-width:1;"/><polygon fill="#181818" points="115.96,86.65,119.96,77.65,115.96,81.65,111.96,77.65,115.96,86.65" style="stroke:#181818;stroke-width:1;"/></g><!--link Initial_State to CheckConditions--><g class="link" data-entity-1="Initial_State" data-entity-2="CheckConditions" data-source-line="2" data-uid="lnk6" id="link_Initial_State_CheckConditions"><path d="M115.96,137.46 C115.96,155.41 115.96,173.69 115.96,191.62" fill="none" id="Initial_State-to-CheckConditions" style="stroke:#181818;stroke-width:1;"/><polygon fill="#181818" points="115.96,197.62,119.96,188.62,115.96,192.62,111.96,188.62,115.96,197.62" style="stroke:#181818;stroke-width:1;"/></g><!--link CheckConditions to Watering--><g class="link" data-entity-1="CheckConditions" data-entity-2="Watering" data-source-line="3" data-uid="lnk8" id="link_CheckConditions_Watering"><path d="M71.7,248.42 C61.37,256.41 51.72,266.29 45.96,278 C38.89,292.39 38.7014,304.5759 41.2914,318.8859" fill="none" id="CheckConditions-to-Watering" style="stroke:#181818;stroke-width:1;"/><polygon fill="#181818" points="42.36,324.79,44.6932,315.2215,41.4695,319.8699,36.8211,316.6463,42.36,324.79" style="stroke:#181818;stroke-width:1;"/><text fill="#000000" font-family="sans-serif" font-size="13" lengthAdjust="spacing" textLength="92.1299" x="46.96" y="291.0669">Water needed</text></g><!--link CheckConditions to Idle--><g class="link" data-entity-1="CheckConditions" data-entity-2="Idle" data-source-line="4" data-uid="lnk10" id="link_CheckConditions_Idle"><path d="M129.04,248.4 C140.85,270.42 155.2959,297.3715 167.0859,319.3715" fill="none" id="CheckConditions-to-Idle" style="stroke:#181818;stroke-width:1;"/><polygon fill="#181818" points="169.92,324.66,169.1944,314.8379,167.5582,320.253,162.1432,318.6167,169.92,324.66" style="stroke:#181818;stroke-width:1;"/><text fill="#000000" font-family="sans-serif" font-size="13" lengthAdjust="spacing" textLength="54.2979" x="154.48" y="291.0669">No need</text></g><!--SRC=[YzQALT3LjLFmpCiioKpCYGykIIn9vKBXWQITCrAJivtpyrA0ulbvnLneV92ISA3IeioyT0Kh25CXBpKr9JK5crBFb9nKe3A_VB0Q0000]--></g></svg>