<svg xmlns="http://www.w3.org/2000/svg" xmlns:xlink="http://www.w3.org/1999/xlink" contentStyleType="text/css" data-diagram-type="ACTIVITY" height="120px" preserveAspectRatio="none" style="width:247px;height:120px;background:#FFFFFF;" version="1.1" viewBox="0 0 247 120" width="247px" zoomAndPan="magnify"><defs/><g><rect fill="#F1F1F1" height="33.9688" rx="12.5" ry="12.5" style="stroke:#181818;stroke-width:0.5;" width="84.125" x="23.05" y="7"/><text fill="#000000" font-family="sans-serif" font-size="12" lengthAdjust="spacing" textLength="64.125" x="33.05" y="28.1387">WaterTask</text><rect fill="#F1F1F1" height="33.9688" rx="12.5" ry="12.5" style="stroke:#181818;stroke-width:0.5;" width="116.2168" x="7" y="80.97"/><text fill="#000000" font-family="sans-serif" font-size="12" lengthAdjust="spacing" textLength="96.2168" x="17" y="102.1087">WaterDuration :</text><rect fill="#F1F1F1" height="33.9688" rx="12.5" ry="12.5" style="stroke:#181818;stroke-width:0.5;" width="108.3594" x="132.93" y="7"/><text fill="#000000" font-family="sans-serif" font-size="12" lengthAdjust="spacing" textLength="88.3594" x="142.93" y="28.1387">WaterDuration</text><rect fill="#F1F1F1" height="33.9688" rx="12.5" ry="12.5" style="stroke:#181818;stroke-width:0.5;" width="87.9395" x="143.14" y="80.97"/><text fill="#000000" font-family="sans-serif" font-size="12" lengthAdjust="spacing" textLength="67.9395" x="153.14" y="102.1087">Water Task</text><!--link WaterTask to WaterDuration :--><g class="link" data-entity-1="WaterTask" data-entity-2="WaterDuration ." data-source-line="1" data-uid="lnk4" id="link_WaterTask_WaterDuration ."><path d="M65.11,41.32 C65.11,53.1 65.11,62.93 65.11,74.69" fill="none" id="WaterTask-to-WaterDuration :" style="stroke:#181818;stroke-width:1;"/><polygon fill="#181818" points="65.11,80.69,69.11,71.69,65.11,75.69,61.11,71.69,65.11,80.69" style="stroke:#181818;stroke-width:1;"/></g><!--link WaterDuration to Water Task--><g class="link" data-entity-1="WaterDuration" data-entity-2="Water Task" data-source-line="2" data-uid="lnk7" id="link_WaterDuration_Water Task"><path d="M187.11,41.32 C187.11,53.1 187.11,62.93 187.11,74.69" fill="none" id="WaterDuration-to-Water Task" style="stroke:#181818;stroke-width:1;"/><polygon fill="#181818" points="187.11,80.69,191.11,71.69,187.11,75.69,183.11,71.69,187.11,80.69" style="stroke:#181818;stroke-width:1;"/></g><!--SRC=[2qyiIIqAIIpErjMrKmW7SLnAYn9BClFp5AouKFXm1GeWvG00]--></g></svg>